<?xml version="1.0" encoding="UTF-8"?>
<svg version="1.1" xmlns="http://www.w3.org/2000/svg" width="64" height="64">
<path d="M0 0 C2.77267859 5.54535717 0.20485493 14.13477994 -1.625 19.75 C-3.45219677 24.41504084 -5.94843379 27.51505267 -9.3984375 31.08984375 C-11.09351508 33.11153384 -11.85376978 34.76255214 -12.6875 37.25 C-14.20834022 41.59525776 -15.88278035 43.94139018 -20 46 C-23.5625 46.125 -23.5625 46.125 -27 46 C-28 45 -28 45 -28.125 42.0625 C-28 39 -28 39 -27 37 C-27.53625 36.79375 -28.0725 36.5875 -28.625 36.375 C-31.91978009 34.46749574 -34.59363628 31.95180616 -37 29 C-37 28.34 -37 27.68 -37 27 C-37.66 27.33 -38.32 27.66 -39 28 C-42.0625 28.125 -42.0625 28.125 -45 28 C-46 27 -46 27 -46.25 23.75 C-45.98304677 19.74570155 -45.48969235 18.09065257 -43 15 C-40.39599921 13.09978321 -38.22872081 12.06463849 -35.125 11.1875 C-32.12982261 10.04933259 -31.04988591 9.25558944 -28.8125 7.125 C-21.24937487 0.26620138 -9.82541555 -2.16159142 0 0 Z M-23.94921875 13.578125 C-27.49230829 17.38716073 -29.10301059 20.64344942 -29 26 C-28.16666667 28.16666667 -28.16666667 28.16666667 -26 29 C-20.64344942 29.10301059 -17.38716073 27.49230829 -13.578125 23.94921875 C-9.80510945 19.28898419 -8 13.93540541 -8 8 C-13.93540541 8 -19.28898419 9.80510945 -23.94921875 13.578125 Z " fill="#784FF2" transform="translate(54,10)"/>
<path d="M0 0 C1.32 0.66 2.64 1.32 4 2 C4 2.99 4 3.98 4 5 C5.32 5.33 6.64 5.66 8 6 C8 7.32 8 8.64 8 10 C4.50971852 11.59555725 1.84597567 12.32049797 -2 12 C-2.33 11.67 -2.66 11.34 -3 11 C-2.40366972 3.60550459 -2.40366972 3.60550459 0 0 Z " fill="#784FF1" transform="translate(14,41)"/>
<path d="M0 0 C2.4375 0.1875 2.4375 0.1875 3.4375 1.1875 C3.625 3.625 3.625 3.625 3.4375 6.1875 C2.7775 6.8475 2.1175 7.5075 1.4375 8.1875 C-1.1875 7.8125 -1.1875 7.8125 -3.5625 7.1875 C-4.1875 4.8125 -4.1875 4.8125 -4.5625 2.1875 C-2.5625 0.1875 -2.5625 0.1875 0 0 Z " fill="#784FF1" transform="translate(38.5625,21.8125)"/>
</svg>
